<svg width="115" height="49" viewBox="0 0 115 49" fill="none" xmlns="http://www.w3.org/2000/svg">
<path d="M0.48 48V0.767998L9.824 -3.8147e-06V40.512H25.568L24.608 48H0.48ZM41.616 48.832C37.3067 48.832 33.9787 47.1253 31.632 43.712C29.328 40.2987 28.176 35.7547 28.176 30.08C28.176 24.448 29.328 19.9467 31.632 16.576C33.936 13.2053 37.264 11.52 41.616 11.52C45.9253 11.52 49.2533 13.2053 51.6 16.576C53.9893 19.9467 55.184 24.448 55.184 30.08C55.184 35.712 53.9893 40.256 51.6 43.712C49.2533 47.1253 45.9253 48.832 41.616 48.832ZM41.616 42.176C43.536 42.176 44.7733 41.0027 45.328 38.656C45.8827 36.3093 46.16 33.4293 46.16 30.016C46.16 26.6027 45.8827 23.7227 45.328 21.376C44.7733 19.0293 43.536 17.856 41.616 17.856C39.696 17.856 38.48 18.9653 37.968 21.184C37.456 23.4027 37.2 26.112 37.2 29.312C37.2 33.2373 37.456 36.3733 37.968 38.72C38.48 41.024 39.696 42.176 41.616 42.176ZM72.031 48.832C68.4897 48.832 65.631 48.0427 63.455 46.464C61.279 44.8427 59.871 42.6027 59.231 39.744L66.207 37.44C66.3777 38.2507 66.6977 38.976 67.167 39.616C68.1483 41.024 69.5777 41.728 71.455 41.728C72.5217 41.728 73.5457 41.4933 74.527 41.024C75.5083 40.5547 75.999 39.8293 75.999 38.848C75.999 37.5253 75.0817 36.5013 73.247 35.776L65.695 32.704C63.6897 31.8507 62.1537 30.5707 61.087 28.864C60.0203 27.1573 59.487 25.0667 59.487 22.592C59.487 20.288 60.0417 18.304 61.151 16.64C62.303 14.976 63.7963 13.7173 65.631 12.864C67.5083 11.968 69.5137 11.52 71.647 11.52C74.335 11.52 76.8097 12.3093 79.071 13.888C81.3323 15.424 82.847 17.536 83.615 20.224L76.191 22.528C76.0203 21.8027 75.7217 21.0773 75.295 20.352C74.3563 18.9013 73.1617 18.176 71.711 18.176C70.6443 18.176 69.727 18.432 68.959 18.944C68.191 19.4133 67.807 20.1173 67.807 21.056C67.807 22.1653 68.8523 23.1893 70.943 24.128L77.343 26.752C79.6043 27.8187 81.375 29.1627 82.655 30.784C83.935 32.4053 84.575 34.5813 84.575 37.312C84.575 39.7867 83.9777 41.8987 82.783 43.648C81.5883 45.3547 80.031 46.656 78.111 47.552C76.191 48.4053 74.1643 48.832 72.031 48.832ZM101.61 48.832C97.3433 48.832 94.0793 47.1467 91.818 43.776C89.5567 40.3627 88.426 35.84 88.426 30.208C88.426 24.4907 89.578 19.9467 91.882 16.576C94.186 13.2053 97.5353 11.52 101.93 11.52C106.111 11.52 109.311 13.2053 111.53 16.576C113.749 19.9467 114.858 24.4907 114.858 30.208C114.858 30.5493 114.794 30.8053 114.666 30.976C114.538 31.104 114.474 31.1893 114.474 31.232H97.386C97.386 34.0053 97.7487 36.544 98.474 38.848C99.1993 41.1093 100.309 42.24 101.802 42.24C103.466 42.24 104.703 41.28 105.514 39.36C106.325 37.44 106.751 36.4373 106.794 36.352L113.578 38.912C112.682 41.984 111.253 44.416 109.29 46.208C107.327 47.9573 104.767 48.832 101.61 48.832ZM106.026 26.048C106.026 23.488 105.685 21.4613 105.002 19.968C104.319 18.4747 103.253 17.728 101.802 17.728C101.077 17.728 100.373 18.0907 99.69 18.816C99.0073 19.5413 98.4527 20.544 98.026 21.824C97.5993 23.104 97.386 24.512 97.386 26.048H106.026Z" fill="url(#paint0_linear_107_38)"/>
<defs>
<linearGradient id="paint0_linear_107_38" x1="141" y1="25.5" x2="7.04762" y2="25.5" gradientUnits="userSpaceOnUse">
<stop stop-color="#4BB3FF"/>
<stop offset="1" stop-color="#FF4B4B"/>
</linearGradient>
</defs>
</svg>
