<svg width="76" height="52" viewBox="0 0 76 52" fill="none" xmlns="http://www.w3.org/2000/svg">
<path d="M10.688 51.384V10.488H0.896L1.6 3H29.76L28.992 10.488H20.032V50.616L10.688 51.384ZM34.468 10.36V1.08L43.428 0.439999V9.976L34.468 10.36ZM34.404 51.384V15.736L43.364 14.968V50.616L34.404 51.384ZM62.6725 51.832C58.4058 51.832 55.1418 50.1467 52.8805 46.776C50.6192 43.3627 49.4885 38.84 49.4885 33.208C49.4885 27.4907 50.6405 22.9467 52.9445 19.576C55.2485 16.2053 58.5978 14.52 62.9925 14.52C67.1738 14.52 70.3738 16.2053 72.5925 19.576C74.8112 22.9467 75.9205 27.4907 75.9205 33.208C75.9205 33.5493 75.8565 33.8053 75.7285 33.976C75.6005 34.104 75.5365 34.1893 75.5365 34.232H58.4485C58.4485 37.0053 58.8112 39.544 59.5365 41.848C60.2618 44.1093 61.3712 45.24 62.8645 45.24C64.5285 45.24 65.7658 44.28 66.5765 42.36C67.3872 40.44 67.8138 39.4373 67.8565 39.352L74.6405 41.912C73.7445 44.984 72.3152 47.416 70.3525 49.208C68.3898 50.9573 65.8298 51.832 62.6725 51.832ZM67.0885 29.048C67.0885 26.488 66.7472 24.4613 66.0645 22.968C65.3818 21.4747 64.3152 20.728 62.8645 20.728C62.1392 20.728 61.4352 21.0907 60.7525 21.816C60.0698 22.5413 59.5152 23.544 59.0885 24.824C58.6618 26.104 58.4485 27.512 58.4485 29.048H67.0885Z" fill="url(#paint0_linear_107_39)"/>
<defs>
<linearGradient id="paint0_linear_107_39" x1="89" y1="28.5" x2="6.78095" y2="28.5" gradientUnits="userSpaceOnUse">
<stop stop-color="#4BB3FF"/>
<stop offset="1" stop-color="#FF4B4B"/>
</linearGradient>
</defs>
</svg>
