<svg width="98" height="52" viewBox="0 0 98 52" fill="none" xmlns="http://www.w3.org/2000/svg">
<path d="M10.624 51L0.832 3.384L11.072 3L16.128 31.736L21.568 3.384L29.248 3L34.304 32.056L40.384 3.384L49.024 3L38.72 51H29.44L24.384 21.688L19.2 51H10.624ZM53.5305 10.36V1.08L62.4905 0.439999V9.976L53.5305 10.36ZM53.4665 51.384V15.736L62.4265 14.968V50.616L53.4665 51.384ZM70.279 15.736L79.239 14.968V19.576C81.0737 17.9547 82.8657 16.7173 84.615 15.864C86.407 14.968 88.0497 14.52 89.543 14.52C91.8043 14.52 93.639 15.352 95.047 17.016C96.4977 18.6373 97.223 20.8347 97.223 23.608V50.616L88.263 51.384V27C88.263 23.8 87.175 22.2 84.999 22.2C84.2737 22.2 83.463 22.4133 82.567 22.84C81.7137 23.2667 80.6043 23.8853 79.239 24.696V50.616L70.279 51.384V15.736Z" fill="url(#paint0_linear_107_37)"/>
<defs>
<linearGradient id="paint0_linear_107_37" x1="120" y1="28.5" x2="9.14286" y2="28.5" gradientUnits="userSpaceOnUse">
<stop stop-color="#4BB3FF"/>
<stop offset="1" stop-color="#FF4B4B"/>
</linearGradient>
</defs>
</svg>
