<svg width="112" height="49" viewBox="0 0 112 49" fill="none" xmlns="http://www.w3.org/2000/svg">
<path d="M0.48 -3.8147e-06H11.232C17.0347 -3.8147e-06 21.2587 1.13066 23.904 3.392C26.5493 5.65333 27.872 8.64 27.872 12.352C27.872 14.6987 27.4027 16.768 26.464 18.56C25.568 20.352 24.3093 21.6533 22.688 22.464C24.736 23.5307 26.3573 24.96 27.552 26.752C28.7467 28.5013 29.344 31.104 29.344 34.56C29.344 43.52 22.2827 48 8.16 48H0.48V-3.8147e-06ZM11.808 19.52C14.2827 19.52 16.1173 19.1147 17.312 18.304C18.5493 17.4933 19.168 15.8293 19.168 13.312C19.168 11.0933 18.464 9.57866 17.056 8.768C15.6907 7.91467 13.8133 7.488 11.424 7.488H9.568V19.52H11.808ZM11.616 40.512C14.688 40.512 16.9067 39.7653 18.272 38.272C19.6373 36.736 20.32 35.072 20.32 33.28C20.32 30.5067 19.5733 28.672 18.08 27.776C16.6293 26.8373 14.5813 26.368 11.936 26.368H9.888V40.512H11.616ZM35.218 48.384V1.152L44.178 -3.8147e-06V47.616L35.218 48.384ZM59.7105 48.832C57.3638 48.832 55.4438 48.0213 53.9505 46.4C52.4572 44.736 51.7105 42.5173 51.7105 39.744V12.736L60.6705 11.968V36.096C60.6705 37.8027 60.9478 39.04 61.5025 39.808C62.0572 40.5333 62.9105 40.896 64.0625 40.896C64.9585 40.896 65.9185 40.6827 66.9425 40.256C67.9665 39.7867 68.8838 39.0613 69.6945 38.08V12.736L78.7185 11.968V47.616L69.6945 48.384V43.776C68.2012 45.4827 66.5585 46.7627 64.7665 47.616C63.0172 48.4267 61.3318 48.832 59.7105 48.832ZM97.9225 48.832C93.6558 48.832 90.3918 47.1467 88.1305 43.776C85.8692 40.3627 84.7385 35.84 84.7385 30.208C84.7385 24.4907 85.8905 19.9467 88.1945 16.576C90.4985 13.2053 93.8478 11.52 98.2425 11.52C102.424 11.52 105.624 13.2053 107.843 16.576C110.061 19.9467 111.171 24.4907 111.171 30.208C111.171 30.5493 111.107 30.8053 110.979 30.976C110.851 31.104 110.787 31.1893 110.787 31.232H93.6985C93.6985 34.0053 94.0612 36.544 94.7865 38.848C95.5118 41.1093 96.6212 42.24 98.1145 42.24C99.7785 42.24 101.016 41.28 101.827 39.36C102.637 37.44 103.064 36.4373 103.107 36.352L109.891 38.912C108.995 41.984 107.565 44.416 105.603 46.208C103.64 47.9573 101.08 48.832 97.9225 48.832ZM102.339 26.048C102.339 23.488 101.997 21.4613 101.315 19.968C100.632 18.4747 99.5652 17.728 98.1145 17.728C97.3892 17.728 96.6852 18.0907 96.0025 18.816C95.3198 19.5413 94.7652 20.544 94.3385 21.824C93.9118 23.104 93.6985 24.512 93.6985 26.048H102.339Z" fill="#4BB3FF"/>
</svg>
