<svg width="92" height="49" viewBox="0 0 92 49" fill="none" xmlns="http://www.w3.org/2000/svg">
<path d="M13.472 26.944H9.824V47.616L0.48 48.384V0.383999L11.872 -3.8147e-06C17.376 -3.8147e-06 21.6853 1.10933 24.8 3.328C27.9147 5.504 29.472 8.85333 29.472 13.376C29.472 16.3627 28.8747 18.816 27.68 20.736C26.528 22.656 24.8427 24.256 22.624 25.536L26.912 35.968L31.264 46.336L22.048 48.832L13.472 26.944ZM13.024 20.032C15.2427 20.032 16.9707 19.584 18.208 18.688C19.488 17.7493 20.128 16 20.128 13.44C20.128 9.472 18.1653 7.488 14.24 7.488H9.824V20.032H13.024ZM47.5475 48.832C43.2808 48.832 40.0168 47.1467 37.7555 43.776C35.4942 40.3627 34.3635 35.84 34.3635 30.208C34.3635 24.4907 35.5155 19.9467 37.8195 16.576C40.1235 13.2053 43.4728 11.52 47.8675 11.52C52.0488 11.52 55.2488 13.2053 57.4675 16.576C59.6862 19.9467 60.7955 24.4907 60.7955 30.208C60.7955 30.5493 60.7315 30.8053 60.6035 30.976C60.4755 31.104 60.4115 31.1893 60.4115 31.232H43.3235C43.3235 34.0053 43.6862 36.544 44.4115 38.848C45.1368 41.1093 46.2462 42.24 47.7395 42.24C49.4035 42.24 50.6408 41.28 51.4515 39.36C52.2622 37.44 52.6888 36.4373 52.7315 36.352L59.5155 38.912C58.6195 41.984 57.1902 44.416 55.2275 46.208C53.2648 47.9573 50.7048 48.832 47.5475 48.832ZM51.9635 26.048C51.9635 23.488 51.6222 21.4613 50.9395 19.968C50.2568 18.4747 49.1902 17.728 47.7395 17.728C47.0142 17.728 46.3102 18.0907 45.6275 18.816C44.9448 19.5413 44.3902 20.544 43.9635 21.824C43.5368 23.104 43.3235 24.512 43.3235 26.048H51.9635ZM74.9845 48.832C68.0725 48.832 64.6165 42.56 64.6165 30.016C64.6165 23.488 65.4698 18.7733 67.1765 15.872C68.8832 12.9707 71.5498 11.52 75.1765 11.52C76.7125 11.52 78.1845 12.032 79.5925 13.056C81.0005 14.0373 82.0245 15.2747 82.6645 16.768V1.152L91.6885 -3.8147e-06V47.616L84.9045 48.384L82.6645 43.52C82.2378 45.0987 81.4485 46.3787 80.2965 47.36C79.1445 48.3413 77.3738 48.832 74.9845 48.832ZM78.3125 42.432C79.5925 42.432 80.6378 41.728 81.4485 40.32C82.2592 38.8693 82.6645 36.4373 82.6645 33.024V20.992C81.4272 19.072 79.9765 18.112 78.3125 18.112C76.9045 18.112 75.8592 18.624 75.1765 19.648C74.5365 20.6293 74.1098 21.9307 73.8965 23.552C73.7258 25.1733 73.6405 27.328 73.6405 30.016C73.6405 32.7467 73.7258 34.9653 73.8965 36.672C74.1098 38.3787 74.5578 39.7653 75.2405 40.832C75.9232 41.8987 76.9472 42.432 78.3125 42.432Z" fill="#FF4B4B"/>
</svg>
